<svg fill="none" height="24" viewBox="0 0 24 24" width="24" xmlns="http://www.w3.org/2000/svg"><g fill="#292d32"><path d="m21.97 2.33c-.72-.82-1.79-1.33-2.97-1.33-1.12 0-2.14.46-2.87 1.21-.42.43-.74.95-.93 1.53-.13.4-.2.82-.2 1.26 0 .75.21 1.46.58 2.06.2.34.46.65.76.91.7.64 1.63 1.03 2.66 1.03.44 0 .86-.07 1.25-.21.92-.29 1.69-.92 2.17-1.73.21-.34.37-.73.46-1.13.08-.3.12-.61.12-.93 0-1.02-.39-1.96-1.03-2.67zm-1.48 3.4h-.74v.78c0 .41-.34.75-.75.75s-.75-.34-.75-.75v-.78h-.74c-.41 0-.75-.34-.75-.75s.34-.75.75-.75h.74v-.71c0-.41.34-.75.75-.75s.75.34.75.75v.71h.74c.41 0 .75.34.75.75s-.33.75-.75.75z"/><path d="m22 12c0-1.31-.25-2.57-.72-3.72-.31.22-.66.39-1.03.51-.11.04-.22.07-.34.1.38.96.59 2.01.59 3.11 0 2.32-.94 4.43-2.46 5.97-.29-.37-.66-.71-1.1-1-2.71-1.82-7.15-1.82-9.88 0-.44.29-.8.63-1.1 1-1.52-1.54-2.46-3.65-2.46-5.97 0-4.69 3.81-8.5 8.5-8.5 1.09 0 2.14.21 3.1.59.03-.12.06-.23.1-.35.12-.37.29-.71.52-1.02-1.15-.47-2.41-.72-3.72-.72-5.51 0-10 4.49-10 10 0 2.9 1.25 5.51 3.23 7.34 0 .01 0 .01-.01.02.1.1.22.18.32.27.06.05.11.1.17.14.18.15.38.29.57.43.07.05.13.09.2.14.19.13.39.25.6.36.07.04.15.09.22.13.2.11.41.21.63.3.08.04.16.08.24.11.22.09.44.17.66.24.08.03.16.06.24.08.24.07.48.13.72.19.07.02.14.04.22.05.28.06.56.1.85.13.04 0 .08.01.12.02.34.03.68.05 1.02.05s.68-.02 1.01-.05c.04 0 .08-.01.12-.02.29-.03.57-.07.85-.13.07-.01.14-.04.22-.05.24-.06.49-.11.72-.19.08-.03.16-.06.24-.08.22-.08.45-.15.66-.24.08-.03.16-.07.24-.11.21-.09.42-.19.63-.3.08-.04.15-.09.22-.13.2-.12.4-.23.6-.36.07-.04.13-.09.2-.14.2-.14.39-.28.57-.43.06-.05.11-.1.17-.14.11-.09.22-.18.32-.27 0-.01 0-.01-.01-.02 1.99-1.83 3.24-4.44 3.24-7.34z"/><path d="m12 6.92969c-2.07 0-3.75 1.68-3.75 3.75001 0 2.03 1.59 3.68 3.7 3.74h.09.07.02c2.02-.07 3.61-1.71 3.62-3.74 0-2.07001-1.68-3.75001-3.75-3.75001z"/></g></svg>