<svg xmlns="http://www.w3.org/2000/svg" width="36.515" height="28.571" viewBox="0 0 36.515 28.571">
  <g id="Group_274" data-name="Group 274" transform="translate(0 0)">
    <path id="Path_3491" data-name="Path 3491" d="M-419.054,342.989a1.748,1.748,0,0,1-.052-.3c.014-1.44-.017-2.883.058-4.32a7.18,7.18,0,0,1,5.161-6.259.911.911,0,0,1,.6.088,8.067,8.067,0,0,0,7.967,0,.974.974,0,0,1,.644-.076,7.143,7.143,0,0,1,5.11,6.295c.072,1.421.043,2.846.055,4.27a1.842,1.842,0,0,1-.05.3Z" transform="translate(427.593 -314.418)" fill="#febaba"/>
    <path id="Path_3492" data-name="Path 3492" d="M-376.47,209.4a6.168,6.168,0,0,1-6.193-6.164,6.166,6.166,0,0,1,6.106-6.2,6.158,6.158,0,0,1,6.243,6.162A6.162,6.162,0,0,1-376.47,209.4Z" transform="translate(394.772 -192.784)" fill="#febaba"/>
    <path id="Path_3493" data-name="Path 3493" d="M-457.292,157.6c-3.834,2.1-5.462,5.249-4.774,9.555-2.565.4-5.516-1.68-6.308-4.456a6.206,6.206,0,0,1,3.491-7.342A6.136,6.136,0,0,1-457.292,157.6Z" transform="translate(472.174 -154.789)" fill="#febaba"/>
    <path id="Path_3494" data-name="Path 3494" d="M-281.756,166.616c.7-4.332-.944-7.491-4.745-9.588a6.052,6.052,0,0,1,7.244-2.39,6.269,6.269,0,0,1,3.79,7.418C-276.2,164.9-279.138,167.019-281.756,166.616Z" transform="translate(308.166 -154.247)" fill="#febaba"/>
    <path id="Path_3495" data-name="Path 3495" d="M-245.63,299.793h-6.246a9.64,9.64,0,0,0-5.688-8.323c.319-.465.614-.919.939-1.349a.487.487,0,0,1,.377-.141,8.3,8.3,0,0,0,5-1.07.751.751,0,0,1,.511-.013,7.1,7.1,0,0,1,5.079,5.99C-245.526,296.493-245.63,298.119-245.63,299.793Z" transform="translate(282.105 -275.481)" fill="#febaba"/>
    <path id="Path_3496" data-name="Path 3496" d="M-498.169,299.94h-6.339c0-.765,0-1.5,0-2.243a11.8,11.8,0,0,1,.37-3.927,7.211,7.211,0,0,1,4.763-4.675.9.9,0,0,1,.641.043,8.031,8.031,0,0,0,4.72,1.015.658.658,0,0,1,.753.376,10.948,10.948,0,0,0,.793,1.112A9.5,9.5,0,0,0-498.169,299.94Z" transform="translate(504.51 -275.659)" fill="#febaba"/>
  </g>
</svg>
