<svg xmlns="http://www.w3.org/2000/svg" width="21.508" height="21.5" viewBox="0 0 21.508 21.5">
  <g id="Group_3746" data-name="Group 3746" transform="translate(566.389 -89.628)">
    <path id="Path_3450" data-name="Path 3450" d="M-553.724,93.658h-11.713a.9.9,0,0,1-.9-1.189.917.917,0,0,1,.914-.606c.924,0,1.848,0,2.772,0q4.357,0,8.714,0a.26.26,0,0,0,.3-.2,3.123,3.123,0,0,1,2.946-2.036,3.11,3.11,0,0,1,2.916,2.045.249.249,0,0,0,.288.193q.84-.014,1.68,0a.876.876,0,0,1,.831.5.85.85,0,0,1-.076.913.858.858,0,0,1-.735.375c-.581,0-1.162,0-1.743,0a.2.2,0,0,0-.225.155,3.1,3.1,0,0,1-2.975,2.081,3.114,3.114,0,0,1-2.937-2.106C-553.684,93.745-553.7,93.708-553.724,93.658Zm4.352-.9a1.322,1.322,0,0,0-1.344-1.336,1.34,1.34,0,0,0-1.341,1.328,1.366,1.366,0,0,0,1.344,1.357A1.34,1.34,0,0,0-549.372,92.761Z" fill="#d10a11"/>
    <path id="Path_3451" data-name="Path 3451" d="M-559.671,454.671c1.918,0,3.836,0,5.753,0a.243.243,0,0,0,.277-.2,3.112,3.112,0,0,1,2.94-2.041,3.1,3.1,0,0,1,2.925,2.03.26.26,0,0,0,.3.209c.546-.014,1.092-.006,1.638,0a.9.9,0,0,1,.96.89.9.9,0,0,1-.952.9c-.553.006-1.106.008-1.659,0a.25.25,0,0,0-.282.2,3.115,3.115,0,0,1-2.943,2.038,3.129,3.129,0,0,1-2.92-2.043.247.247,0,0,0-.283-.194q-5.722.006-11.444,0a.936.936,0,0,1-.965-.594.894.894,0,0,1,.863-1.2q2.814,0,5.627,0Zm10.3.9a1.34,1.34,0,0,0-1.339-1.351,1.363,1.363,0,0,0-1.346,1.354,1.341,1.341,0,0,0,1.338,1.331A1.323,1.323,0,0,0-549.367,455.569Z" transform="translate(-0.004 -347.573)" fill="#d10a11"/>
    <path id="Path_3452" data-name="Path 3452" d="M-551.534,275.02q-2.9,0-5.794,0a.247.247,0,0,0-.28.2,3.14,3.14,0,0,1-2.935,2.056,3.138,3.138,0,0,1-2.936-2.054.249.249,0,0,0-.281-.2q-.871.015-1.742,0a.883.883,0,0,1-.863-.789.9.9,0,0,1,.651-.955,1.317,1.317,0,0,1,.332-.031c.539,0,1.078-.007,1.616,0a.249.249,0,0,0,.284-.2,3.132,3.132,0,0,1,5.158-1.129,2.908,2.908,0,0,1,.713,1.123.256.256,0,0,0,.3.2q5.637-.007,11.274,0c.063,0,.126,0,.189,0a.9.9,0,0,1,.983.888.928.928,0,0,1-.979.9c-1.805-.016-3.611-.006-5.417-.005Zm-10.349-.887a1.335,1.335,0,0,0,1.346,1.341,1.359,1.359,0,0,0,1.339-1.337,1.357,1.357,0,0,0-1.345-1.352A1.334,1.334,0,0,0-561.884,274.133Z" transform="translate(-0.017 -173.752)" fill="#d10a11"/>
  </g>
</svg>
