<svg xmlns="http://www.w3.org/2000/svg" width="42.044" height="40" viewBox="0 0 42.044 40">
  <g id="Group_2722" data-name="Group 2722" transform="translate(566.645 -144.119)">
    <path id="Path_3757" data-name="Path 3757" d="M-472.576,413.106c.634-1.285.56-2.222-.226-2.977-.881-.847-1.808-.9-3.091-.173-1.035-1.409-1.835-1.7-3.252-1.142-.052-.1-.108-.2-.161-.307a2.214,2.214,0,0,0-2.886-1.084.393.393,0,0,1-.53-.118c-.5-.616-1-1.229-1.482-1.86a.417.417,0,0,1,.014-.384q2.464-3.491,4.952-6.964a.482.482,0,0,1,.28-.2,15.917,15.917,0,0,1,3.945.095c-.5.4-.927.765-1.375,1.091a1.959,1.959,0,0,0-.854,1.761c.027,1,0,2,.008,3,0,.881.511,1.279,1.359,1.062a4.011,4.011,0,0,0,3.032-2.827.481.481,0,0,1,.576-.4c.643.025,1.288.018,1.932,0a.47.47,0,0,1,.482.282,5.914,5.914,0,0,0,1.879,2.192,1.651,1.651,0,0,0,.8.246c.821.035,1.644.008,2.466.032a1.192,1.192,0,0,1,.6.185q3.585,2.434,7.154,4.893a1.265,1.265,0,0,1,.436,1.872,1.29,1.29,0,0,1-1.887.217q-3.222-2.274-6.438-4.555c-.078-.055-.154-.114-.236-.164a.618.618,0,0,0-.879.1c-.2.278-.121.585.232.836.8.572,1.612,1.136,2.418,1.7.885.623,1.772,1.242,2.653,1.869a1.219,1.219,0,0,1,.516,1.332,1.181,1.181,0,0,1-.937.929,1.325,1.325,0,0,1-1.15-.3q-2.287-1.639-4.579-3.272c-.045-.032-.088-.066-.133-.1-.373-.257-.7-.242-.9.041s-.127.608.236.871c.577.417,1.16.827,1.737,1.243.511.368,1.027.73,1.523,1.117a1.178,1.178,0,0,1,.478,1.194,1.245,1.245,0,0,1-2,.8c-1.086-.741-2.154-1.507-3.228-2.266-.513-.362-.842-.389-1.077-.076s-.113.628.4.99c.28.2.565.387.837.595a1.162,1.162,0,0,1,.268,1.669,1.189,1.189,0,0,1-1.649.219.774.774,0,0,1-.4-.869,2.188,2.188,0,0,0-1.441-2.252C-472.295,413.205-472.435,413.157-472.576,413.106Z" transform="translate(-75.625 -232.832)" fill="#1a1a1a"/>
    <path id="Path_3758" data-name="Path 3758" d="M-416.051,152.668c0-1.548.006-3.1-.006-4.645a.431.431,0,0,1,.315-.478c2.686-1.121,5.366-2.26,8.052-3.38a.768.768,0,0,1,.535,0c2.7,1.124,5.4,2.265,8.1,3.391a.384.384,0,0,1,.27.427c-.007,3.083,0,6.166-.01,9.249a4.757,4.757,0,0,1-.879,2.524,15.494,15.494,0,0,1-3.424,3.631.745.745,0,0,1-.417.11q-3.2.132-6.4.251a.149.149,0,0,0-.041,0,2.012,2.012,0,0,1-2.145-.641,17.016,17.016,0,0,1-3.108-3.426,5.193,5.193,0,0,1-.844-2.95C-416.024,155.382-416.051,154.025-416.051,152.668Zm8.635,7.672a6.087,6.087,0,0,0,6.091-6.12,6.1,6.1,0,0,0-6.119-6.1,6.1,6.1,0,0,0-6.074,6.1A6.1,6.1,0,0,0-407.416,160.34Z" transform="translate(-138.201 0)" fill="#1a1a1a"/>
    <path id="Path_3759" data-name="Path 3759" d="M-384.943,401.283c0-1.1-.013-2.163.014-3.23a.8.8,0,0,1,.3-.5c.812-.672,1.62-1.354,2.481-1.96a2.376,2.376,0,0,1,1.087-.253,49.055,49.055,0,0,1,9.6-.03,6.091,6.091,0,0,0,.939.077,1.36,1.36,0,0,1,1.284.742c1.476,2.125,2.987,4.225,4.5,6.324a.468.468,0,0,1,0,.678c-.5.582-.98,1.176-1.469,1.765-.191.23-.365.229-.624.05q-2.833-1.967-5.693-3.894a1.451,1.451,0,0,0-.713-.222c-.834-.038-1.671-.047-2.506-.043a.958.958,0,0,1-.831-.358c-.455-.611-.921-1.219-1.316-1.869a.91.91,0,0,0-.876-.531c-1,.017-2,0-3,.006-.622,0-.764.121-.876.729A2.988,2.988,0,0,1-384.943,401.283Z" transform="translate(-166.759 -230.333)" fill="#1a1a1a"/>
    <path id="Path_3760" data-name="Path 3760" d="M-188.662,353.59l7.289,8.365-4.882,3.31-6.41-9Z" transform="translate(-343.229 -192.247)" fill="#1a1a1a"/>
    <path id="Path_3761" data-name="Path 3761" d="M-559.355,353.578l4,2.67-6.411,9-4.882-3.308Z" transform="translate(0 -192.236)" fill="#1a1a1a"/>
    <path id="Path_3762" data-name="Path 3762" d="M-402.525,556.272a3.6,3.6,0,0,1,.309-.607q.952-1.236,1.935-2.448a1.068,1.068,0,0,1,1.565-.177,1.079,1.079,0,0,1,.222,1.563c-.645.851-1.312,1.684-1.983,2.514a1.058,1.058,0,0,1-1.262.312A1.322,1.322,0,0,1-402.525,556.272Z" transform="translate(-150.625 -375.056)" fill="#1a1a1a"/>
    <path id="Path_3763" data-name="Path 3763" d="M-432.141,543.091a3.525,3.525,0,0,1-.294.651c-.334.466-.7.914-1.058,1.359a1.116,1.116,0,0,1-1.568.227,1.1,1.1,0,0,1-.234-1.593c.357-.484.734-.953,1.118-1.416a1.035,1.035,0,0,1,1.219-.318A1.289,1.289,0,0,1-432.141,543.091Z" transform="translate(-120.328 -365.092)" fill="#1a1a1a"/>
    <path id="Path_3764" data-name="Path 3764" d="M-365.093,598.463a2.046,2.046,0,0,1,.988-1.313.977.977,0,0,1,1.151.1,1.089,1.089,0,0,1,.274,1.581,5.482,5.482,0,0,1-.464.572,1.057,1.057,0,0,1-1.194.288A1.22,1.22,0,0,1-365.093,598.463Z" transform="translate(-184.979 -415.644)" fill="#1a1a1a"/>
    <path id="Path_3765" data-name="Path 3765" d="M-463.951,528.811a1.089,1.089,0,0,1-1.139-1.125,1.538,1.538,0,0,1,1.35-1.4,1.129,1.129,0,0,1,1.12,1.121A1.481,1.481,0,0,1-463.951,528.811Z" transform="translate(-93.204 -350.739)" fill="#1a1a1a"/>
    <path id="Path_3766" data-name="Path 3766" d="M-363.328,219.386a4.687,4.687,0,0,1-4.633-4.917,4.7,4.7,0,0,1,4.9-4.479,4.7,4.7,0,0,1,4.469,4.872A4.69,4.69,0,0,1-363.328,219.386Zm-.777-3.426c-.347-.384-.634-.734-.955-1.049a.661.661,0,0,0-1.016,0,.686.686,0,0,0,.043.993q.7.724,1.425,1.423a.678.678,0,0,0,1.026.03q1.847-1.816,3.663-3.662a.67.67,0,0,0,0-.991.684.684,0,0,0-.994.024c-.688.668-1.363,1.35-2.038,2.031C-363.315,215.13-363.669,215.508-364.1,215.961Z" transform="translate(-182.346 -60.454)" fill="#1a1a1a"/>
  </g>
</svg>
