<svg xmlns="http://www.w3.org/2000/svg" width="36" height="36" viewBox="0 0 36 36">
  <g id="Group_2724" data-name="Group 2724" transform="translate(515.98 -167.91)">
    <path id="Path_3755" data-name="Path 3755" d="M-515.98,185.9a18.009,18.009,0,0,1,18.005-17.994,18.007,18.007,0,0,1,17.995,18.005,18.009,18.009,0,0,1-18.045,18A18.012,18.012,0,0,1-515.98,185.9Zm7.32.019A10.693,10.693,0,0,0-498,196.59a10.691,10.691,0,0,0,10.7-10.675,10.688,10.688,0,0,0-10.684-10.685A10.689,10.689,0,0,0-508.66,185.923Zm9.75,12.463a12.549,12.549,0,0,1-7.5-3.229L-509,197.748a16.123,16.123,0,0,0,10.089,4.3Zm10.166-20.912a12.658,12.658,0,0,1,2.247,3.472,12.686,12.686,0,0,1,.993,4.027h3.667a16.121,16.121,0,0,0-4.314-10.089Zm-1.081,17.927a12.481,12.481,0,0,1-7.217,2.986v3.647a15.69,15.69,0,0,0,9.789-4.067Zm-24.284-10.423h3.653a12.456,12.456,0,0,1,2.962-7.194l-2.579-2.579A15.828,15.828,0,0,0-514.109,184.977Zm8.024-8.6a12.53,12.53,0,0,1,7.162-2.948v-3.666a16.107,16.107,0,0,0-9.757,4.022Zm20.242,20.218a16.1,16.1,0,0,0,4-9.753h-3.669a12.49,12.49,0,0,1-2.943,7.174Zm-11.2-23.162a12.5,12.5,0,0,1,6.908,2.718l2.59-2.606a16.061,16.061,0,0,0-9.5-3.779Zm-17.073,13.409a16.08,16.08,0,0,0,3.791,9.5l2.6-2.6a12.52,12.52,0,0,1-2.723-6.9Z" transform="translate(0 0)" fill="#1a1a1a"/>
    <path id="Path_3756" data-name="Path 3756" d="M-387.231,292.127c1.094.751,2.182,1.476,3.24,2.241a1.308,1.308,0,0,1,.483.717c.111.521-.251.927-.831,1.021-.876.142-1.755.267-2.632.4-.364.054-.73.094-1.089.17a.32.32,0,0,0-.19.243c.061,1.052.141,2.1.216,3.155.016.228.031.456.046.684a.871.871,0,0,1-.516.9.875.875,0,0,1-1.049-.188l-2.719-2.506c-.065-.06-.132-.117-.234-.207-.478.437-.953.869-1.425,1.3s-.948.884-1.425,1.323a.937.937,0,0,1-1.17.266.968.968,0,0,1-.486-1.063c.1-1.177.165-2.356.257-3.534.021-.265-.039-.369-.333-.407-1.194-.157-2.383-.348-3.573-.535a.914.914,0,0,1-.84-.715.907.907,0,0,1,.466-1.032q1.443-.993,2.89-1.98c.114-.078.224-.161.362-.26l-1.181-2.056c-.265-.462-.526-.926-.795-1.386a.913.913,0,0,1,.034-1.1.907.907,0,0,1,1.065-.288c1.138.348,2.279.689,3.411,1.056.3.1.437.063.556-.255.411-1.1.862-2.193,1.287-3.291a.979.979,0,0,1,.893-.712.959.959,0,0,1,.92.722c.443,1.119.887,2.238,1.318,3.361.086.223.175.278.417.2,1.122-.358,2.255-.68,3.377-1.038a.986.986,0,0,1,1.206.25,1,1,0,0,1-.045,1.235C-385.964,289.912-386.59,291.013-387.231,292.127Zm-5.268-4.608c-.054.121-.071.155-.084.19q-.385.972-.769,1.943c-.321.809-.674.976-1.51.719l-2.2-.678c.446.779.854,1.479,1.25,2.186a.912.912,0,0,1-.3,1.328c-.3.215-.607.416-.911.624l-1.16.8c.854.128,1.6.245,2.348.352a.967.967,0,0,1,.978,1.145c0,.19-.031.38-.043.57-.04.6-.079,1.191-.125,1.885l1.736-1.61a.961.961,0,0,1,1.555-.006c.57.516,1.134,1.039,1.757,1.611-.057-.855-.111-1.623-.157-2.392-.048-.79.228-1.1,1.025-1.208.732-.1,1.46-.222,2.286-.349-.689-.474-1.291-.89-1.9-1.3-.732-.5-.817-.86-.38-1.622l1.153-2.005-2.218.679c-.81.249-1.174.075-1.484-.708Z" transform="translate(-105.718 -107.314)" fill="#1a1a1a"/>
  </g>
</svg>
