<svg xmlns="http://www.w3.org/2000/svg" width="20.003" height="20" viewBox="0 0 20.003 20">
  <g id="Group_222" data-name="Group 222" transform="translate(440.054 -177.844)">
    <path id="Path_3558" data-name="Path 3558" d="M-420.051,187.85a10,10,0,0,1-10.044,9.994,10,10,0,0,1-9.958-10.021,10,10,0,0,1,10.03-9.979A10,10,0,0,1-420.051,187.85Zm-8.454-1.807h-.321c-1.071,0-2.143,0-3.214,0-.346,0-.552.162-.56.423-.009.28.194.442.563.442q1.563,0,3.126,0h.316a1.6,1.6,0,0,1-1.559,1.129c-.6.014-1.208,0-1.812,0-.227,0-.461,0-.584.239-.115.224,0,.41.121.595q1.281,2.02,2.559,4.042a1.238,1.238,0,0,0,.134.191.4.4,0,0,0,.551.073.4.4,0,0,0,.144-.539,1.929,1.929,0,0,0-.148-.251q-1.029-1.628-2.057-3.255c-.042-.067-.074-.14-.127-.24.458,0,.867.009,1.275,0a2.388,2.388,0,0,0,1.917-.953,8.969,8.969,0,0,0,.594-1.034c.349,0,.748,0,1.147,0,.347,0,.541-.16.54-.433s-.189-.428-.544-.433c-.331,0-.662,0-.993-.006a.262.262,0,0,1-.2-.106c-.172-.432-.328-.871-.487-1.3.525,0,1.1,0,1.674,0,.354,0,.546-.151.551-.422s-.19-.445-.56-.446q-2.79,0-5.581,0c-.346,0-.551.163-.559.425-.008.28.195.442.563.443.653,0,1.305-.007,1.958,0A1.654,1.654,0,0,1-428.505,186.043Z" fill="#d10a11"/>
  </g>
</svg>
