<svg xmlns="http://www.w3.org/2000/svg" width="30" height="30" viewBox="0 0 30 30">
  <g id="Group_1658" data-name="Group 1658" transform="translate(515.98 -167.91)">
    <path id="Path_3755" data-name="Path 3755" d="M-515.98,182.9a15.007,15.007,0,0,1,15-14.995,15.006,15.006,0,0,1,15,15,15.008,15.008,0,0,1-15.037,15A15.01,15.01,0,0,1-515.98,182.9Zm6.1.016a8.911,8.911,0,0,0,8.887,8.89,8.909,8.909,0,0,0,8.913-8.9,8.907,8.907,0,0,0-8.9-8.9A8.907,8.907,0,0,0-509.88,182.92Zm8.125,10.386a10.457,10.457,0,0,1-6.25-2.691l-2.157,2.159a13.436,13.436,0,0,0,8.408,3.586Zm8.472-17.427a10.549,10.549,0,0,1,1.872,2.893,10.572,10.572,0,0,1,.827,3.356h3.056a13.434,13.434,0,0,0-3.595-8.408Zm-.9,14.939a10.4,10.4,0,0,1-6.014,2.488v3.039a13.075,13.075,0,0,0,8.158-3.389Zm-20.237-8.685h3.044a10.38,10.38,0,0,1,2.468-6l-2.15-2.149A13.19,13.19,0,0,0-514.421,182.133Zm6.686-7.164a10.442,10.442,0,0,1,5.968-2.457v-3.055a13.423,13.423,0,0,0-8.131,3.351Zm16.869,16.848a13.419,13.419,0,0,0,3.336-8.128h-3.057a10.408,10.408,0,0,1-2.453,5.978Zm-9.337-19.3a10.416,10.416,0,0,1,5.756,2.265l2.158-2.171a13.384,13.384,0,0,0-7.914-3.149ZM-514.43,183.69a13.4,13.4,0,0,0,3.159,7.92l2.164-2.167a10.434,10.434,0,0,1-2.269-5.753Z" fill="#039511"/>
    <path id="Path_3756" data-name="Path 3756" d="M-389.615,290.787c.912.626,1.818,1.23,2.7,1.867a1.09,1.09,0,0,1,.4.6c.092.434-.209.772-.693.851-.73.118-1.462.222-2.194.332-.3.045-.609.078-.908.142a.267.267,0,0,0-.158.2c.051.877.118,1.753.18,2.629.014.19.026.38.038.57a.726.726,0,0,1-.43.748.729.729,0,0,1-.874-.157l-2.266-2.088c-.054-.05-.11-.1-.2-.173-.4.364-.794.724-1.188,1.087s-.79.736-1.187,1.1a.781.781,0,0,1-.975.221.807.807,0,0,1-.405-.886c.081-.981.138-1.964.214-2.945.017-.221-.033-.307-.277-.339-.995-.131-1.986-.29-2.978-.446a.761.761,0,0,1-.7-.6.756.756,0,0,1,.388-.86q1.2-.828,2.408-1.65c.095-.065.187-.134.3-.217l-.984-1.714c-.221-.385-.439-.772-.662-1.155a.761.761,0,0,1,.028-.918.756.756,0,0,1,.887-.24c.949.29,1.9.574,2.842.88.251.081.364.053.463-.213.342-.92.718-1.827,1.072-2.743a.816.816,0,0,1,.744-.593.8.8,0,0,1,.767.6c.369.932.739,1.865,1.1,2.8.071.186.146.232.347.168.935-.3,1.879-.567,2.814-.865a.822.822,0,0,1,1.005.208.837.837,0,0,1-.037,1.03C-388.558,288.941-389.08,289.858-389.615,290.787Zm-4.39-3.84c-.045.1-.059.129-.07.159q-.321.81-.641,1.619c-.267.674-.562.814-1.258.6l-1.835-.565c.372.65.712,1.233,1.042,1.822a.76.76,0,0,1-.248,1.106c-.249.179-.506.347-.759.52l-.967.666c.712.107,1.334.2,1.956.293a.806.806,0,0,1,.815.954c0,.158-.025.316-.036.475-.034.5-.066.992-.1,1.571l1.446-1.342a.8.8,0,0,1,1.3,0c.475.43.945.866,1.464,1.342-.047-.712-.092-1.352-.131-1.993-.04-.658.19-.916.854-1.007.61-.083,1.217-.185,1.905-.291-.574-.395-1.076-.741-1.58-1.087-.61-.418-.681-.717-.316-1.351l.96-1.671-1.848.566c-.675.207-.978.063-1.237-.59Z" transform="translate(-107.173 -108.791)" fill="#039511"/>
  </g>
</svg>
