<svg xmlns="http://www.w3.org/2000/svg" width="63" height="63" viewBox="0 0 63 63">
  <g id="Group_2926" data-name="Group 2926" transform="translate(-344 -817)">
    <rect id="Rectangle_506" data-name="Rectangle 506" width="63" height="63" rx="10" transform="translate(344 817)" fill="#d10a11"/>
    <g id="Group_407" data-name="Group 407" transform="translate(356.543 829.573)">
      <path id="Path_3773" data-name="Path 3773" d="M-472.641,190.274c-.011-.219-.024-.36-.024-.5q.005-16.708.014-33.415A3.748,3.748,0,0,1-469.6,152.5a4.662,4.662,0,0,1,.928-.059c9.968,0,19.937.015,29.9-.016a3.866,3.866,0,0,1,3.938,3.083,5.141,5.141,0,0,1,.059.928c0,7.435-.027,14.871.02,22.306a3.945,3.945,0,0,1-4.048,4.036c-8.605-.039-17.211-.014-25.817-.022a1.039,1.039,0,0,0-.815.33q-3.4,3.422-6.813,6.823C-472.353,190.015-472.471,190.117-472.641,190.274Zm30.289-30.239h-22.714v3.743h22.714Zm0,5.687h-22.715v3.745h22.715Zm-22.727,9.466h.575q5.772,0,11.544,0c1,0,2-.04,3-.062q.024-1.482.047-2.963c0-.247,0-.493,0-.745H-465.08Z" transform="translate(472.665 -152.421)" fill="#fff"/>
    </g>
  </g>
</svg>
