<svg xmlns="http://www.w3.org/2000/svg" width="37.116" height="36" viewBox="0 0 37.116 36">
  <g id="Group_2723" data-name="Group 2723" transform="translate(418.608 -236.554)">
    <path id="Path_3797" data-name="Path 3797" d="M-412.113,269l10.945,10.968a1.989,1.989,0,0,1,.247-.4q2.436-2.451,4.884-4.89c.506-.505.818-.506,1.319-.005q3.52,3.518,7.038,7.039c.505.506.505.829,0,1.316a11.967,11.967,0,0,1-6.861,3.242,17.82,17.82,0,0,1-12.151-2.891,26.662,26.662,0,0,1-10.049-11.022,17.818,17.818,0,0,1-1.864-7.909,12.543,12.543,0,0,1,3.422-8.971c.457-.478.792-.483,1.253-.022q3.552,3.549,7.1,7.1c.481.481.478.8-.012,1.286q-2.442,2.444-4.89,4.883A2.94,2.94,0,0,1-412.113,269Z" transform="translate(0 -13.865)" fill="#1a1a1a"/>
    <g id="Group_427" data-name="Group 427" transform="translate(-405.224 236.554)">
      <path id="Path_3798" data-name="Path 3798" d="M-252.309,325.584a5.018,5.018,0,0,0-1.7,2.352.4.4,0,0,1-.429.289,5.6,5.6,0,0,0-1.421.219,1.9,1.9,0,0,0-1.345,1.846,4.474,4.474,0,0,0,.305,2.258.656.656,0,0,1,.03.142c-.988.342-1.159,1.214-1.322,2.073-.105.556-.156,1.122-.228,1.684-.017.134-.027.244-.215.244q-2.939-.006-5.877,0a1.175,1.175,0,0,1-.145-.019,1.248,1.248,0,0,1-.015-.164c.071-1.949.1-3.9.229-5.844a19.08,19.08,0,0,1,.97-5.238,5.1,5.1,0,0,1,1.488-2.358,2.351,2.351,0,0,1,1.49-.549,1.811,1.811,0,0,1,.683.144,5.107,5.107,0,0,0,4.277.06,1.666,1.666,0,0,1,2.227.58,5.674,5.674,0,0,1,.485.948C-252.636,324.679-252.485,325.119-252.309,325.584Z" transform="translate(264.667 -313.276)" fill="#1a1a1a"/>
      <path id="Path_3799" data-name="Path 3799" d="M-144.2,365.248h-9.665c-.171-.732-.308-1.429-.5-2.111a2.834,2.834,0,0,0-1.158-1.763,2.483,2.483,0,0,1,.086-.25,5.416,5.416,0,0,0,.329-2.425,1.839,1.839,0,0,0-.862-1.48,5.128,5.128,0,0,1,1.464-2.211,2.075,2.075,0,0,1,1.291-.466,1.291,1.291,0,0,1,.5.106,4.956,4.956,0,0,0,3.659.2.574.574,0,0,0,.126-.052,1.444,1.444,0,0,1,1.2-.2,2.473,2.473,0,0,1,1.278.807,7.108,7.108,0,0,1,1.362,2.842,22.843,22.843,0,0,1,.721,4.457C-144.3,363.527-144.258,364.357-144.2,365.248Z" transform="translate(167.933 -341.775)" fill="#1a1a1a"/>
      <path id="Path_3800" data-name="Path 3800" d="M-226.7,247.569a4.447,4.447,0,0,1-2.439-.676,3.092,3.092,0,0,1-1.329-2.852,23.368,23.368,0,0,1,.311-3.076,3.061,3.061,0,0,1,2.625-2.387,4.983,4.983,0,0,1,2.549.357,3.124,3.124,0,0,1,1.933,3.763,21.1,21.1,0,0,1-.714,2.524,3.188,3.188,0,0,1-2.2,2.225A6.109,6.109,0,0,1-226.7,247.569Z" transform="translate(234.238 -238.539)" fill="#1a1a1a"/>
      <path id="Path_3801" data-name="Path 3801" d="M-145.6,287.484c.224-.252.45-.5.672-.756a1.207,1.207,0,0,0,.254-1.248,5.773,5.773,0,0,1-.31-2.264,3.051,3.051,0,0,1,2.611-2.8,3.265,3.265,0,0,1,3.88,3.088,8.067,8.067,0,0,1,.044,1.2,1.279,1.279,0,0,0,.6,1.186c.257.173.519.337.815.528-.39.109-.75.216-1.113.311a3.005,3.005,0,0,0-1.213.593,3.656,3.656,0,0,1-1.84.855,3.67,3.67,0,0,1-2.165-.442,1.624,1.624,0,0,0-.62-.172c-.536-.024-1.074-.008-1.611-.008Z" transform="translate(158.703 -275.761)" fill="#1a1a1a"/>
      <path id="Path_3802" data-name="Path 3802" d="M-198,426.7c.145-.734.228-1.418.423-2.068a1.21,1.21,0,0,1,1.319-.971c.25.026.49.173.737.182a2.818,2.818,0,0,0,.99-.1,1.143,1.143,0,0,1,1.358.391,3.312,3.312,0,0,1,.516,1.654c.031.289.031.58.047.913Z" transform="translate(205.338 -403.278)" fill="#1a1a1a"/>
      <path id="Path_3803" data-name="Path 3803" d="M-189.218,384.576a1.69,1.69,0,0,1,.537-1.564,2.3,2.3,0,0,1,2.571-.017,1.341,1.341,0,0,1,.545,1.116,11.06,11.06,0,0,1-.117,1.418,1.562,1.562,0,0,1-1.761,1.36,1.577,1.577,0,0,1-1.684-1.524C-189.167,385.1-189.189,384.839-189.218,384.576Z" transform="translate(197.53 -366.756)" fill="#1a1a1a"/>
    </g>
  </g>
</svg>
