<svg xmlns="http://www.w3.org/2000/svg" width="23" height="23" viewBox="0 0 23 23">
  <g id="Group_1658" data-name="Group 1658" transform="translate(515.98 -167.91)">
    <path id="Path_3755" data-name="Path 3755" d="M-515.98,179.406a11.506,11.506,0,0,1,11.5-11.5,11.5,11.5,0,0,1,11.5,11.5,11.506,11.506,0,0,1-11.528,11.5A11.507,11.507,0,0,1-515.98,179.406Zm4.678.012a6.83,6.83,0,0,0,6.813,6.815,6.83,6.83,0,0,0,6.833-6.82,6.828,6.828,0,0,0-6.826-6.827A6.827,6.827,0,0,0-511.3,179.418Zm6.229,7.962a8.01,8.01,0,0,1-4.791-2.063l-1.655,1.656a10.3,10.3,0,0,0,6.446,2.75Zm6.5-13.36a8.072,8.072,0,0,1,1.435,2.218,8.108,8.108,0,0,1,.634,2.573h2.343a10.3,10.3,0,0,0-2.755-6.446Zm-.691,11.453a7.973,7.973,0,0,1-4.611,1.907v2.33a10.023,10.023,0,0,0,6.254-2.6Zm-15.514-6.659h2.333a7.962,7.962,0,0,1,1.894-4.6l-1.649-1.647A10.109,10.109,0,0,0-514.784,178.814Zm5.125-5.493a8.012,8.012,0,0,1,4.577-1.883V169.1a10.293,10.293,0,0,0-6.234,2.569Zm12.934,12.917a10.291,10.291,0,0,0,2.558-6.231h-2.345a7.971,7.971,0,0,1-1.88,4.583Zm-7.159-14.8a7.983,7.983,0,0,1,4.413,1.736l1.654-1.665a10.26,10.26,0,0,0-6.067-2.415Zm-10.908,8.567a10.273,10.273,0,0,0,2.423,6.072l1.659-1.661a8,8,0,0,1-1.74-4.411Z" transform="translate(0 0)" fill="#8292a8"/>
    <path id="Path_3756" data-name="Path 3756" d="M-392.4,289.223c.7.48,1.394.943,2.07,1.432a.838.838,0,0,1,.309.458c.071.333-.16.592-.531.652-.56.091-1.121.171-1.681.254-.232.035-.467.06-.7.109a.206.206,0,0,0-.122.156c.04.672.09,1.344.139,2.015.011.146.02.292.029.438a.556.556,0,0,1-.329.573.56.56,0,0,1-.67-.12l-1.737-1.6c-.042-.038-.085-.074-.15-.132-.306.279-.61.555-.911.834s-.606.565-.911.845a.6.6,0,0,1-.747.169.618.618,0,0,1-.311-.679c.062-.752.105-1.506.164-2.258.013-.17-.025-.236-.212-.26-.763-.1-1.523-.223-2.283-.342a.584.584,0,0,1-.537-.457.579.579,0,0,1,.3-.659q.922-.634,1.847-1.265c.073-.05.144-.1.231-.166l-.754-1.314c-.169-.294-.337-.592-.508-.885a.583.583,0,0,1,.021-.7.579.579,0,0,1,.68-.184c.727.222,1.456.44,2.179.675.193.062.28.04.355-.164.262-.7.551-1.4.822-2.1a.624.624,0,0,1,.57-.454.613.613,0,0,1,.588.461c.283.714.566,1.43.841,2.147.055.142.111.177.267.128.717-.228,1.44-.434,2.157-.663a.631.631,0,0,1,.771.159.642.642,0,0,1-.029.789C-391.585,287.808-391.985,288.511-392.4,289.223Zm-3.366-2.944c-.034.078-.045.1-.054.122q-.245.621-.492,1.242c-.205.517-.431.623-.964.459l-1.407-.433c.286.5.546.945.8,1.4a.583.583,0,0,1-.19.848c-.19.138-.388.266-.582.4l-.742.511c.546.082,1.022.157,1.5.225a.617.617,0,0,1,.625.731c0,.122-.02.242-.027.364-.026.38-.05.761-.08,1.2l1.109-1.029a.613.613,0,0,1,.993,0c.364.329.725.664,1.122,1.029-.036-.546-.07-1.037-.1-1.528s.145-.7.655-.772c.467-.063.932-.142,1.46-.223-.44-.3-.825-.568-1.211-.833-.468-.321-.522-.55-.243-1.036l.737-1.281-1.417.434c-.518.159-.75.048-.948-.452Z" transform="translate(-108.871 -110.515)" fill="#8292a8"/>
  </g>
</svg>
