<svg xmlns="http://www.w3.org/2000/svg" width="24.983" height="25" viewBox="0 0 24.983 25">
  <g id="Group_3" data-name="Group 3" transform="translate(533.416 -110.358)">
    <path id="Path_3562" data-name="Path 3562" d="M-531.695,110.358a10.016,10.016,0,0,1,9.394,7.687,9.88,9.88,0,0,1-1.133,7.777c-.086.143-.128.235.019.381,1.757,1.744,3.491,3.513,5.265,5.239a2.143,2.143,0,0,1,.638,2.2,2.138,2.138,0,0,1-1.664,1.649,2.16,2.16,0,0,1-2.155-.653l-5.045-5.045c-.36-.36-.36-.36-.787-.113a10.221,10.221,0,0,1-13.1-2.584,10.1,10.1,0,0,1-2.134-6.926,10.158,10.158,0,0,1,7.1-9.129A11.563,11.563,0,0,1-531.695,110.358Zm-.511,4.556a5.6,5.6,0,0,0-5.667,5.687,5.615,5.615,0,0,0,5.694,5.669,5.633,5.633,0,0,0,5.662-5.681A5.614,5.614,0,0,0-532.205,114.914Z" transform="translate(9 0)" fill="#7a7a7a"/>
  </g>
</svg>
