<svg xmlns="http://www.w3.org/2000/svg" width="58.891" height="50" viewBox="0 0 58.891 50">
  <g id="Group_1801" data-name="Group 1801" transform="translate(0 0)">
    <path id="Path_4523" data-name="Path 4523" d="M-492.245,161.49v-3.644a2.881,2.881,0,0,1,.868-2.339,3.1,3.1,0,0,1,2.412-.861h29.62v2.208h-29.3c-1.153,0-1.324.162-1.323,1.288v2.613c0,.735,0,.736.742.736h33.5a5.847,5.847,0,0,1,1.37.111,2.785,2.785,0,0,1,2.135,2.821q0,8.008,0,16.016v8.322c.2.017.363.043.527.043q1.7.006,3.4,0c.733,0,.838-.1.838-.8V168.353h2.263c.012.212.032.41.032.607q0,9.537.007,19.075a2.6,2.6,0,0,1-1.21,2.484,3.916,3.916,0,0,1-1.665.48c-1.166.073-2.339.022-3.51.025-.206,0-.412.02-.677.035v3.592c0,2.111-1.151,3.229-3.326,3.229h-38.1c-2.138,0-3.323-1.134-3.323-3.186V164.607a2.788,2.788,0,0,1,.838-2.292,3,3,0,0,1,2.365-.829C-493.286,161.484-492.806,161.49-492.245,161.49Zm2.3,29.594h30.718c-.271-.6-.508-1.134-.754-1.668a54.164,54.164,0,0,0-4.784-8.778,14.283,14.283,0,0,0-2.213-2.466,2.613,2.613,0,0,0-3.924.124,11.546,11.546,0,0,0-1.309,1.472c-.971,1.287-1.852,2.639-2.867,3.892-1.44,1.777-2.442,1.788-4.093.206a16.278,16.278,0,0,0-1.735-1.539,3.049,3.049,0,0,0-3.785-.039,8.621,8.621,0,0,0-1.753,1.662,20.651,20.651,0,0,0-3.088,5.921c-.139.377-.26.76-.412,1.211Zm7.091-22.81a4.779,4.779,0,0,0-3.357,1.342,4.456,4.456,0,0,0-1.36,3.255,4.67,4.67,0,0,0,4.716,4.567,4.7,4.7,0,0,0,4.763-4.593,4.488,4.488,0,0,0-1.394-3.245,4.812,4.812,0,0,0-3.367-1.327Z" transform="translate(496.982 -147.878)" fill="#f18181"/>
    <path id="Path_4524" data-name="Path 4524" d="M-118.366,109.634h-2.287v-6.817h-7V100.6h6.966v-6.78h2.3v6.749h7.091v2.2c-.22.01-.425.026-.629.026-1.937,0-3.874.019-5.81-.01-.522-.008-.646.157-.64.634.025,1.852.009,3.7.009,5.558Z" transform="translate(170.191 -93.821)" fill="#f18181"/>
  </g>
</svg>
