<svg xmlns="http://www.w3.org/2000/svg" width="15.467" height="15" viewBox="0 0 15.467 15">
  <g id="Group_2001" data-name="Group 2001" transform="translate(418.609 -236.554)">
    <path id="Path_3797" data-name="Path 3797" d="M-415.9,260.9l4.561,4.57a.829.829,0,0,1,.1-.167q1.015-1.021,2.035-2.037c.211-.211.341-.211.55,0l2.932,2.933c.211.211.21.345,0,.548a4.986,4.986,0,0,1-2.859,1.351,7.425,7.425,0,0,1-5.063-1.2,11.109,11.109,0,0,1-4.187-4.592,7.424,7.424,0,0,1-.777-3.3,5.226,5.226,0,0,1,1.426-3.738c.19-.2.33-.2.522-.009l2.958,2.958c.2.2.2.332,0,.536q-1.018,1.018-2.038,2.035A1.222,1.222,0,0,1-415.9,260.9Z" transform="translate(0 -16.601)" fill="#8292a8"/>
    <g id="Group_427" data-name="Group 427" transform="translate(-413.031 236.554)">
      <path id="Path_3798" data-name="Path 3798" d="M-259.518,323.8a2.091,2.091,0,0,0-.707.98.167.167,0,0,1-.179.12,2.331,2.331,0,0,0-.592.091.79.79,0,0,0-.56.769,1.865,1.865,0,0,0,.127.941.272.272,0,0,1,.013.059c-.412.143-.483.506-.551.864-.044.232-.065.467-.095.7-.007.056-.011.1-.09.1q-1.224,0-2.449,0a.489.489,0,0,1-.061-.008.524.524,0,0,1-.006-.068c.03-.812.043-1.625.1-2.435a7.95,7.95,0,0,1,.4-2.183,2.123,2.123,0,0,1,.62-.982.979.979,0,0,1,.621-.229.755.755,0,0,1,.285.06,2.128,2.128,0,0,0,1.782.025.694.694,0,0,1,.928.242,2.364,2.364,0,0,1,.2.4C-259.654,323.419-259.591,323.6-259.518,323.8Z" transform="translate(264.667 -318.667)" fill="#8292a8"/>
      <path id="Path_3799" data-name="Path 3799" d="M-151.067,359h-4.027c-.071-.305-.128-.6-.208-.879a1.181,1.181,0,0,0-.482-.735,1.034,1.034,0,0,1,.036-.1,2.257,2.257,0,0,0,.137-1.01.766.766,0,0,0-.359-.617,2.137,2.137,0,0,1,.61-.921.864.864,0,0,1,.538-.194.538.538,0,0,1,.209.044,2.065,2.065,0,0,0,1.525.083.239.239,0,0,0,.053-.021.6.6,0,0,1,.5-.085,1.031,1.031,0,0,1,.532.336,2.962,2.962,0,0,1,.567,1.184,9.517,9.517,0,0,1,.3,1.857C-151.11,358.285-151.091,358.631-151.067,359Z" transform="translate(160.955 -349.222)" fill="#8292a8"/>
      <path id="Path_3800" data-name="Path 3800" d="M-228.9,242.3a1.853,1.853,0,0,1-1.016-.282,1.288,1.288,0,0,1-.554-1.188,9.736,9.736,0,0,1,.129-1.282,1.276,1.276,0,0,1,1.094-.995,2.076,2.076,0,0,1,1.062.149,1.3,1.3,0,0,1,.805,1.568,8.792,8.792,0,0,1-.3,1.052,1.328,1.328,0,0,1-.916.927A2.544,2.544,0,0,1-228.9,242.3Z" transform="translate(232.043 -238.538)" fill="#8292a8"/>
      <path id="Path_3801" data-name="Path 3801" d="M-145.6,283.331c.093-.1.187-.209.28-.315a.5.5,0,0,0,.106-.52,2.4,2.4,0,0,1-.129-.943,1.271,1.271,0,0,1,1.088-1.165,1.36,1.36,0,0,1,1.617,1.286,3.363,3.363,0,0,1,.018.5.533.533,0,0,0,.25.494c.107.072.216.14.34.22-.162.046-.312.09-.464.129a1.252,1.252,0,0,0-.505.247,1.523,1.523,0,0,1-.767.356,1.529,1.529,0,0,1-.9-.184.677.677,0,0,0-.258-.072c-.223-.01-.447,0-.671,0Z" transform="translate(151.059 -278.446)" fill="#8292a8"/>
      <path id="Path_3802" data-name="Path 3802" d="M-198,424.919c.06-.306.095-.591.176-.862a.5.5,0,0,1,.549-.4c.1.011.2.072.307.076a1.174,1.174,0,0,0,.413-.042.476.476,0,0,1,.566.163,1.38,1.38,0,0,1,.215.689c.013.12.013.242.02.38Z" transform="translate(201.058 -415.161)" fill="#8292a8"/>
      <path id="Path_3803" data-name="Path 3803" d="M-189.224,383.43a.7.7,0,0,1,.224-.652.96.96,0,0,1,1.071-.007.559.559,0,0,1,.227.465,4.607,4.607,0,0,1-.049.591.651.651,0,0,1-.734.567.657.657,0,0,1-.7-.635C-189.2,383.65-189.211,383.54-189.224,383.43Z" transform="translate(192.687 -376.005)" fill="#8292a8"/>
    </g>
  </g>
</svg>
